<svg width="624" height="290" viewBox="0 0 624 290" fill="none" xmlns="http://www.w3.org/2000/svg">
<g clip-path="url(#clip0_14_382)">
<path d="M227.136 8C190.952 8.11703 156.293 22.5801 130.769 48.2138C105.245 73.8474 90.9416 108.556 91.0002 144.72C91.0587 180.884 105.474 215.546 131.081 241.097C156.688 266.648 191.394 280.999 227.578 280.999C263.762 280.999 298.468 266.648 324.075 241.097C349.682 215.546 364.097 180.884 364.156 144.72C364.214 108.556 349.911 73.8474 324.387 48.2138C298.863 22.5801 264.204 8.11703 228.02 8L227.136 8Z" fill="#EB001B"/>
<path d="M395.98 8C359.796 8.11703 325.137 22.5801 299.613 48.2138C274.089 73.8474 259.786 108.556 259.844 144.72C259.903 180.884 274.318 215.546 299.925 241.097C325.532 266.648 360.238 280.999 396.422 280.999C432.606 280.999 467.312 266.648 492.919 241.097C518.526 215.546 532.941 180.884 533 144.72C533.058 108.556 518.755 73.8474 493.231 48.2138C467.707 22.5801 433.048 8.11703 396.864 8L395.98 8Z" fill="#F79E1B"/>
<path d="M312 37.1554C295.731 49.9274 282.577 66.2263 273.532 84.8219C264.487 103.417 259.787 123.824 259.787 144.5C259.787 165.176 264.487 185.583 273.532 204.178C282.577 222.774 295.731 239.073 312 251.845C328.269 239.073 341.423 222.774 350.468 204.178C359.513 185.583 364.213 165.176 364.213 144.5C364.213 123.824 359.513 103.417 350.468 84.8219C341.423 66.2263 328.269 49.9274 312 37.1554Z" fill="#FF5F00"/>
</g>
<defs>
<clipPath id="clip0_14_382">
<rect width="442" height="273" fill="white" transform="translate(91 8)"/>
</clipPath>
</defs>
</svg>
