<svg width="624" height="290" viewBox="0 0 624 290" fill="none" xmlns="http://www.w3.org/2000/svg">
<g clip-path="url(#clip0_14_376)">
<g clip-path="url(#clip1_14_376)">
<path d="M270.479 242.925H219.525L251.371 47.2111H302.331L270.479 242.925ZM176.659 47.2111L128.081 181.825L122.333 152.837L122.338 152.848L105.193 64.8329C105.193 64.8329 103.119 47.2111 81.0216 47.2111H0.713095L-0.229248 50.525C-0.229248 50.525 24.3292 55.6346 53.0707 72.8952L97.3398 242.93H150.43L231.498 47.2111H176.659ZM577.442 242.925H624.229L583.436 47.2059H542.476C523.561 47.2059 518.954 61.7912 518.954 61.7912L442.959 242.925H496.076L506.698 213.854H571.474L577.442 242.925ZM521.373 173.694L548.146 100.453L563.207 173.694H521.373ZM446.943 94.2759L454.215 52.2474C454.215 52.2474 431.777 43.714 408.386 43.714C383.1 43.714 323.052 54.7656 323.052 108.505C323.052 159.067 393.528 159.695 393.528 186.254C393.528 212.812 330.313 208.053 309.45 191.306L301.875 235.25C301.875 235.25 324.627 246.302 359.389 246.302C394.162 246.302 446.619 228.298 446.619 179.296C446.619 128.41 375.509 123.672 375.509 101.548C375.514 79.4183 425.139 82.261 446.943 94.2759Z" fill="#2566AF"/>
<path d="M122.338 152.842L105.193 64.8276C105.193 64.8276 103.119 47.2058 81.0216 47.2058H0.713095L-0.229248 50.5197C-0.229248 50.5197 38.3701 58.5191 75.3937 88.4908C110.794 117.138 122.338 152.842 122.338 152.842Z" fill="#E6A540"/>
</g>
</g>
<defs>
<clipPath id="clip0_14_376">
<rect width="624" height="290" fill="white"/>
</clipPath>
<clipPath id="clip1_14_376">
<rect width="742" height="742" fill="white" transform="translate(-59 -226)"/>
</clipPath>
</defs>
</svg>
